<?xml version="1.0" encoding="UTF-8"?>
<svg version="1.1" xmlns="http://www.w3.org/2000/svg" width="768" height="768">
<path d="M0 0 C17.79183668 15.43775599 27.67155598 35.91845334 29.6328125 59.35546875 C31.04307318 85.77267322 24.03973189 109.23437273 6.6328125 129.35546875 C5.56363217 130.76710047 4.50115962 132.18383675 3.4453125 133.60546875 C-0.2281994 138.36338119 -4.33498917 142.67773327 -8.4543457 147.04614258 C-12.65919884 151.52731983 -16.54011572 156.168485 -20.3828125 160.96484375 C-22.66973849 163.71995931 -25.12518607 166.20380682 -27.6953125 168.69140625 C-30.09467078 171.07955257 -32.28106149 173.6337625 -34.4921875 176.1953125 C-36.54907429 178.56501748 -38.64125009 180.89974131 -40.7421875 183.23046875 C-41.50273438 184.07480469 -42.26328125 184.91914063 -43.046875 185.7890625 C-44.56883837 187.47244623 -46.09475376 189.1522671 -47.625 190.828125 C-51.54577204 195.138242 -55.33520913 199.50583627 -58.9921875 204.04296875 C-62.05018354 207.82299163 -65.20477536 211.31295058 -68.6953125 214.69140625 C-71.09467078 217.07955257 -73.28106149 219.6337625 -75.4921875 222.1953125 C-77.54907429 224.56501748 -79.64125009 226.89974131 -81.7421875 229.23046875 C-82.50273438 230.07480469 -83.26328125 230.91914063 -84.046875 231.7890625 C-85.56883837 233.47244623 -87.09475376 235.1522671 -88.625 236.828125 C-92.54577204 241.138242 -96.33520913 245.50583627 -99.9921875 250.04296875 C-103.05018354 253.82299163 -106.20477536 257.31295058 -109.6953125 260.69140625 C-112.09467078 263.07955257 -114.28106149 265.6337625 -116.4921875 268.1953125 C-118.54907429 270.56501748 -120.64125009 272.89974131 -122.7421875 275.23046875 C-123.50273437 276.07480469 -124.26328125 276.91914063 -125.046875 277.7890625 C-126.56883837 279.47244623 -128.09475376 281.1522671 -129.625 282.828125 C-133.54577204 287.138242 -137.33520913 291.50583627 -140.9921875 296.04296875 C-144.05018354 299.82299163 -147.20477536 303.31295058 -150.6953125 306.69140625 C-153.09467078 309.07955257 -155.28106149 311.6337625 -157.4921875 314.1953125 C-161.81560202 319.17624631 -166.2750684 324.03869256 -170.6953125 328.93359375 C-174.6805407 333.35258829 -178.63676179 337.79229888 -182.54296875 342.28125 C-185.40981952 345.54098824 -188.33307234 348.74957659 -191.25390625 351.9609375 C-192.69407603 353.59277498 -194.08502298 355.26907754 -195.4296875 356.98046875 C-197.09301272 359.01938354 -198.63009626 360.54884059 -200.6796875 362.16796875 C-203.29069635 364.31821133 -205.34258912 366.51166172 -207.4296875 369.16796875 C-218.20301329 381.74084785 -237.41193105 389.7852371 -253.3671875 392.35546875 C-258.1298163 392.72198552 -262.84821014 392.83072262 -267.62304688 392.80151367 C-269.7340673 392.79300149 -271.8423691 392.8218984 -273.953125 392.85351562 C-286.83278042 392.92160892 -298.61631503 390.28378419 -310.2421875 384.54296875 C-310.95342773 384.20040039 -311.66466797 383.85783203 -312.39746094 383.50488281 C-317.94900031 380.74816875 -322.71707798 377.45850656 -327.3671875 373.35546875 C-328.18058594 372.73542969 -328.99398438 372.11539062 -329.83203125 371.4765625 C-342.62670573 360.77161914 -351.65714521 340.73743637 -353.3671875 324.35546875 C-355.18465192 295.54378942 -350.73087573 272.57084799 -332.9921875 249.23046875 C-330.94383904 246.98703949 -328.98093971 245.11872964 -326.6796875 243.16796875 C-319.45789265 237.00900409 -313.42266654 229.59856726 -307.2109375 222.44921875 C-304.95842293 219.89127848 -302.66401658 217.37367895 -300.3671875 214.85546875 C-296.91390597 211.06883877 -293.50619699 207.25070555 -290.14453125 203.3828125 C-288.07359263 201.02057702 -285.97205902 198.68751022 -283.8671875 196.35546875 C-281.17735319 193.37484154 -278.50408386 190.38301642 -275.8671875 187.35546875 C-270.99575547 181.76566886 -266.008236 176.28011977 -261.0390625 170.77734375 C-257.06780152 166.37383668 -253.12897606 161.94740455 -249.23828125 157.47265625 C-247.02235791 154.96528579 -244.75677842 152.50645286 -242.4921875 150.04296875 C-239.09185187 146.32272294 -235.84054357 142.53096122 -232.6796875 138.60546875 C-229.6438269 134.84398945 -226.50928842 131.3783279 -223.0390625 128.01953125 C-220.63970422 125.63138493 -218.45331351 123.077175 -216.2421875 120.515625 C-214.18530071 118.14592002 -212.09312491 115.81119619 -209.9921875 113.48046875 C-209.23164063 112.63613281 -208.47109375 111.79179687 -207.6875 110.921875 C-206.16553663 109.23849127 -204.63962124 107.5586704 -203.109375 105.8828125 C-199.18860296 101.5726955 -195.39916587 97.20510123 -191.7421875 92.66796875 C-188.68419146 88.88794587 -185.52959964 85.39798692 -182.0390625 82.01953125 C-179.63970422 79.63138493 -177.45331351 77.077175 -175.2421875 74.515625 C-173.18530071 72.14592002 -171.09312491 69.81119619 -168.9921875 67.48046875 C-168.23164063 66.63613281 -167.47109375 65.79179687 -166.6875 64.921875 C-165.16553663 63.23849127 -163.63962124 61.5586704 -162.109375 59.8828125 C-158.18860296 55.5726955 -154.39916587 51.20510123 -150.7421875 46.66796875 C-147.68419146 42.88794587 -144.52959964 39.39798692 -141.0390625 36.01953125 C-138.63970422 33.63138493 -136.45331351 31.077175 -134.2421875 28.515625 C-132.18530071 26.14592002 -130.09312491 23.81119619 -127.9921875 21.48046875 C-126.85523438 20.21783203 -126.85523438 20.21783203 -125.6953125 18.9296875 C-124.14840422 17.21926374 -122.59634119 15.51348729 -121.0390625 13.8125 C-116.79455265 9.15653256 -112.78862473 4.45248637 -109.0703125 -0.63671875 C-99.81022117 -11.55343192 -81.34135114 -16.02726668 -67.55175781 -17.47021484 C-43.87589465 -19.35941537 -18.88635742 -15.45602375 0 0 Z " fill="#EFEFEF" transform="translate(624.3671875,209.64453125)"/>
<path d="M0 0 C0.84046875 0.67804688 1.6809375 1.35609375 2.546875 2.0546875 C17.46677095 14.75920496 27.05935045 33.0211911 29.75 52.4375 C31.62480657 77.13007434 26.79621377 100.55562116 10.75 119.875 C3.30093396 128.41872244 -5.32918122 134.4622469 -15.5 139.375 C-16.16338379 139.69702393 -16.82676758 140.01904785 -17.51025391 140.35083008 C-28.59975283 145.41331092 -39.34340825 146.48134766 -51.4375 146.375 C-53.41073242 146.39240234 -53.41073242 146.39240234 -55.42382812 146.41015625 C-67.1135542 146.37545147 -77.88138543 144.77392169 -88.25 139.1875 C-88.92836914 138.83204102 -89.60673828 138.47658203 -90.30566406 138.11035156 C-92.21651962 137.09495204 -94.11065939 136.05477546 -96 135 C-97.28390625 134.29037109 -97.28390625 134.29037109 -98.59375 133.56640625 C-112.31939597 125.18679993 -121.34803146 112.27031275 -127.8125 97.875 C-128.24816284 96.90771973 -128.24816284 96.90771973 -128.69262695 95.92089844 C-132.70517472 86.56184106 -133.37296589 77.5922508 -133.37060547 67.47314453 C-133.37494929 65.39920998 -133.41128484 63.32746217 -133.44921875 61.25390625 C-133.55937153 48.45603454 -131.1603397 36.53394704 -124.8125 25.25 C-124.22722534 24.18543579 -124.22722534 24.18543579 -123.63012695 23.09936523 C-112.56697556 3.53839869 -95.22815102 -8.82584991 -73.8125 -15 C-48.61677746 -21.18089275 -20.2733886 -16.48074788 0 0 Z " fill="#DBDCDC" transform="translate(276,314)"/>
</svg>
